<mxfile host="app.diagrams.net" agent="Mozilla/5.0 (Windows NT 10.0; Win64; x64) AppleWebKit/537.36 (KHTML, like Gecko) Chrome/138.0.0.0 Safari/537.36" version="28.0.5">
  <diagram name="Page-1" id="9XB1cBHWN_1oIG6TwmNF">
    <mxGraphModel dx="844" dy="760" grid="1" gridSize="10" guides="1" tooltips="1" connect="1" arrows="1" fold="1" page="1" pageScale="1" pageWidth="1100" pageHeight="850" math="0" shadow="0">
      <root>
        <mxCell id="0" />
        <mxCell id="1" parent="0" />
        <mxCell id="zt0yvEeUoWX8miQGYGIt-2" value="" style="ellipse;whiteSpace=wrap;html=1;" vertex="1" parent="1">
          <mxGeometry x="40" y="240" width="60" height="40" as="geometry" />
        </mxCell>
        <mxCell id="zt0yvEeUoWX8miQGYGIt-3" value="&lt;font style=&quot;font-size: 10px;&quot;&gt;1 - Head&lt;/font&gt;" style="text;html=1;align=center;verticalAlign=middle;whiteSpace=wrap;rounded=0;" vertex="1" parent="1">
          <mxGeometry x="40" y="245" width="60" height="30" as="geometry" />
        </mxCell>
        <mxCell id="zt0yvEeUoWX8miQGYGIt-4" value="" style="ellipse;whiteSpace=wrap;html=1;" vertex="1" parent="1">
          <mxGeometry x="190" y="120" width="60" height="40" as="geometry" />
        </mxCell>
        <mxCell id="zt0yvEeUoWX8miQGYGIt-5" value="2" style="text;html=1;align=center;verticalAlign=middle;whiteSpace=wrap;rounded=0;" vertex="1" parent="1">
          <mxGeometry x="190" y="125" width="60" height="30" as="geometry" />
        </mxCell>
        <mxCell id="zt0yvEeUoWX8miQGYGIt-6" value="" style="ellipse;whiteSpace=wrap;html=1;" vertex="1" parent="1">
          <mxGeometry x="190" y="240" width="60" height="40" as="geometry" />
        </mxCell>
        <mxCell id="zt0yvEeUoWX8miQGYGIt-7" value="3" style="text;html=1;align=center;verticalAlign=middle;whiteSpace=wrap;rounded=0;" vertex="1" parent="1">
          <mxGeometry x="190" y="245" width="60" height="30" as="geometry" />
        </mxCell>
        <mxCell id="zt0yvEeUoWX8miQGYGIt-8" value="" style="ellipse;whiteSpace=wrap;html=1;" vertex="1" parent="1">
          <mxGeometry x="190" y="360" width="60" height="40" as="geometry" />
        </mxCell>
        <mxCell id="zt0yvEeUoWX8miQGYGIt-9" value="4" style="text;html=1;align=center;verticalAlign=middle;whiteSpace=wrap;rounded=0;" vertex="1" parent="1">
          <mxGeometry x="190" y="365" width="60" height="30" as="geometry" />
        </mxCell>
        <mxCell id="zt0yvEeUoWX8miQGYGIt-10" value="" style="ellipse;whiteSpace=wrap;html=1;" vertex="1" parent="1">
          <mxGeometry x="340" y="120" width="60" height="40" as="geometry" />
        </mxCell>
        <mxCell id="zt0yvEeUoWX8miQGYGIt-11" value="5" style="text;html=1;align=center;verticalAlign=middle;whiteSpace=wrap;rounded=0;" vertex="1" parent="1">
          <mxGeometry x="340" y="125" width="60" height="30" as="geometry" />
        </mxCell>
        <mxCell id="zt0yvEeUoWX8miQGYGIt-12" value="" style="ellipse;whiteSpace=wrap;html=1;" vertex="1" parent="1">
          <mxGeometry x="340" y="240" width="60" height="40" as="geometry" />
        </mxCell>
        <mxCell id="zt0yvEeUoWX8miQGYGIt-13" value="6" style="text;html=1;align=center;verticalAlign=middle;whiteSpace=wrap;rounded=0;" vertex="1" parent="1">
          <mxGeometry x="340" y="245" width="60" height="30" as="geometry" />
        </mxCell>
        <mxCell id="zt0yvEeUoWX8miQGYGIt-14" value="" style="ellipse;whiteSpace=wrap;html=1;" vertex="1" parent="1">
          <mxGeometry x="490" y="240" width="60" height="40" as="geometry" />
        </mxCell>
        <mxCell id="zt0yvEeUoWX8miQGYGIt-15" value="&lt;font style=&quot;font-size: 10px;&quot;&gt;7 - Terminal&lt;/font&gt;" style="text;html=1;align=center;verticalAlign=middle;whiteSpace=wrap;rounded=0;" vertex="1" parent="1">
          <mxGeometry x="490" y="245" width="60" height="30" as="geometry" />
        </mxCell>
        <mxCell id="zt0yvEeUoWX8miQGYGIt-21" value="" style="endArrow=classic;html=1;rounded=0;entryX=0.25;entryY=1;entryDx=0;entryDy=0;" edge="1" parent="1" target="zt0yvEeUoWX8miQGYGIt-5">
          <mxGeometry width="50" height="50" relative="1" as="geometry">
            <mxPoint x="90" y="245" as="sourcePoint" />
            <mxPoint x="140" y="195" as="targetPoint" />
          </mxGeometry>
        </mxCell>
        <mxCell id="zt0yvEeUoWX8miQGYGIt-22" value="" style="endArrow=classic;html=1;rounded=0;exitX=0.5;exitY=1;exitDx=0;exitDy=0;entryX=0.5;entryY=0;entryDx=0;entryDy=0;" edge="1" parent="1" source="zt0yvEeUoWX8miQGYGIt-4" target="zt0yvEeUoWX8miQGYGIt-6">
          <mxGeometry width="50" height="50" relative="1" as="geometry">
            <mxPoint x="200" y="210" as="sourcePoint" />
            <mxPoint x="250" y="160" as="targetPoint" />
          </mxGeometry>
        </mxCell>
        <mxCell id="zt0yvEeUoWX8miQGYGIt-23" value="" style="endArrow=classic;html=1;rounded=0;exitX=1;exitY=0.5;exitDx=0;exitDy=0;entryX=0;entryY=0.5;entryDx=0;entryDy=0;" edge="1" parent="1" source="zt0yvEeUoWX8miQGYGIt-3" target="zt0yvEeUoWX8miQGYGIt-7">
          <mxGeometry width="50" height="50" relative="1" as="geometry">
            <mxPoint x="170" y="370" as="sourcePoint" />
            <mxPoint x="220" y="320" as="targetPoint" />
          </mxGeometry>
        </mxCell>
        <mxCell id="zt0yvEeUoWX8miQGYGIt-24" value="" style="endArrow=classic;html=1;rounded=0;exitX=1;exitY=1;exitDx=0;exitDy=0;entryX=0;entryY=0;entryDx=0;entryDy=0;" edge="1" parent="1" source="zt0yvEeUoWX8miQGYGIt-2" target="zt0yvEeUoWX8miQGYGIt-8">
          <mxGeometry width="50" height="50" relative="1" as="geometry">
            <mxPoint x="80" y="350" as="sourcePoint" />
            <mxPoint x="130" y="300" as="targetPoint" />
          </mxGeometry>
        </mxCell>
        <mxCell id="zt0yvEeUoWX8miQGYGIt-25" value="" style="endArrow=classic;html=1;rounded=0;entryX=0;entryY=1;entryDx=0;entryDy=0;exitX=0.894;exitY=0.143;exitDx=0;exitDy=0;exitPerimeter=0;" edge="1" parent="1" source="zt0yvEeUoWX8miQGYGIt-7" target="zt0yvEeUoWX8miQGYGIt-10">
          <mxGeometry width="50" height="50" relative="1" as="geometry">
            <mxPoint x="250" y="260" as="sourcePoint" />
            <mxPoint x="300" y="210" as="targetPoint" />
          </mxGeometry>
        </mxCell>
        <mxCell id="zt0yvEeUoWX8miQGYGIt-26" value="" style="endArrow=classic;html=1;rounded=0;exitX=1;exitY=0.5;exitDx=0;exitDy=0;entryX=0;entryY=0.5;entryDx=0;entryDy=0;" edge="1" parent="1" source="zt0yvEeUoWX8miQGYGIt-5" target="zt0yvEeUoWX8miQGYGIt-11">
          <mxGeometry width="50" height="50" relative="1" as="geometry">
            <mxPoint x="260" y="155" as="sourcePoint" />
            <mxPoint x="310" y="105" as="targetPoint" />
          </mxGeometry>
        </mxCell>
        <mxCell id="zt0yvEeUoWX8miQGYGIt-27" value="" style="endArrow=classic;html=1;rounded=0;entryX=0.25;entryY=1;entryDx=0;entryDy=0;" edge="1" parent="1" target="zt0yvEeUoWX8miQGYGIt-13">
          <mxGeometry width="50" height="50" relative="1" as="geometry">
            <mxPoint x="240" y="365" as="sourcePoint" />
            <mxPoint x="360" y="260" as="targetPoint" />
          </mxGeometry>
        </mxCell>
        <mxCell id="zt0yvEeUoWX8miQGYGIt-28" value="" style="endArrow=classic;html=1;rounded=0;exitX=1;exitY=0.5;exitDx=0;exitDy=0;entryX=0;entryY=0.5;entryDx=0;entryDy=0;" edge="1" parent="1" source="zt0yvEeUoWX8miQGYGIt-13" target="zt0yvEeUoWX8miQGYGIt-15">
          <mxGeometry width="50" height="50" relative="1" as="geometry">
            <mxPoint x="310" y="400" as="sourcePoint" />
            <mxPoint x="360" y="350" as="targetPoint" />
          </mxGeometry>
        </mxCell>
        <mxCell id="zt0yvEeUoWX8miQGYGIt-29" value="" style="endArrow=classic;html=1;rounded=0;exitX=0.5;exitY=1;exitDx=0;exitDy=0;entryX=0.5;entryY=0;entryDx=0;entryDy=0;" edge="1" parent="1" source="zt0yvEeUoWX8miQGYGIt-10" target="zt0yvEeUoWX8miQGYGIt-12">
          <mxGeometry width="50" height="50" relative="1" as="geometry">
            <mxPoint x="380" y="230" as="sourcePoint" />
            <mxPoint x="430" y="180" as="targetPoint" />
          </mxGeometry>
        </mxCell>
        <mxCell id="zt0yvEeUoWX8miQGYGIt-30" value="" style="endArrow=classic;html=1;rounded=0;exitX=1;exitY=0.5;exitDx=0;exitDy=0;entryX=0.25;entryY=0;entryDx=0;entryDy=0;" edge="1" parent="1" source="zt0yvEeUoWX8miQGYGIt-11" target="zt0yvEeUoWX8miQGYGIt-15">
          <mxGeometry width="50" height="50" relative="1" as="geometry">
            <mxPoint x="410" y="210" as="sourcePoint" />
            <mxPoint x="460" y="160" as="targetPoint" />
          </mxGeometry>
        </mxCell>
        <mxCell id="zt0yvEeUoWX8miQGYGIt-31" value="&lt;font style=&quot;font-size: 10px;&quot;&gt;A=2&lt;/font&gt;" style="text;html=1;align=center;verticalAlign=middle;whiteSpace=wrap;rounded=0;" vertex="1" parent="1">
          <mxGeometry x="70" y="190" width="60" height="30" as="geometry" />
        </mxCell>
        <mxCell id="zt0yvEeUoWX8miQGYGIt-33" value="&lt;font style=&quot;font-size: 10px;&quot;&gt;B=2&lt;/font&gt;" style="text;html=1;align=center;verticalAlign=middle;whiteSpace=wrap;rounded=0;" vertex="1" parent="1">
          <mxGeometry x="120" y="230" width="60" height="30" as="geometry" />
        </mxCell>
        <mxCell id="zt0yvEeUoWX8miQGYGIt-34" value="&lt;font style=&quot;font-size: 10px;&quot;&gt;C=3&lt;/font&gt;" style="text;html=1;align=center;verticalAlign=middle;whiteSpace=wrap;rounded=0;" vertex="1" parent="1">
          <mxGeometry x="120" y="290" width="60" height="30" as="geometry" />
        </mxCell>
        <mxCell id="zt0yvEeUoWX8miQGYGIt-36" value="&lt;span style=&quot;font-size: 10px;&quot;&gt;D=4&lt;/span&gt;" style="text;html=1;align=center;verticalAlign=middle;whiteSpace=wrap;rounded=0;" vertex="1" parent="1">
          <mxGeometry x="260" y="110" width="60" height="30" as="geometry" />
        </mxCell>
        <mxCell id="zt0yvEeUoWX8miQGYGIt-37" value="&lt;span style=&quot;font-size: 10px;&quot;&gt;E=2&lt;/span&gt;" style="text;html=1;align=center;verticalAlign=middle;whiteSpace=wrap;rounded=0;" vertex="1" parent="1">
          <mxGeometry x="220" y="170" width="60" height="30" as="geometry" />
        </mxCell>
        <mxCell id="zt0yvEeUoWX8miQGYGIt-38" value="&lt;span style=&quot;font-size: 10px;&quot;&gt;F = 5&lt;/span&gt;" style="text;html=1;align=center;verticalAlign=middle;whiteSpace=wrap;rounded=0;" vertex="1" parent="1">
          <mxGeometry x="280" y="210" width="60" height="30" as="geometry" />
        </mxCell>
        <mxCell id="zt0yvEeUoWX8miQGYGIt-39" value="&lt;span style=&quot;font-size: 10px;&quot;&gt;G=3&amp;nbsp;&lt;/span&gt;" style="text;html=1;align=center;verticalAlign=middle;whiteSpace=wrap;rounded=0;" vertex="1" parent="1">
          <mxGeometry x="270" y="330" width="60" height="30" as="geometry" />
        </mxCell>
        <mxCell id="zt0yvEeUoWX8miQGYGIt-40" value="&lt;span style=&quot;font-size: 10px;&quot;&gt;I=3&lt;/span&gt;" style="text;html=1;align=center;verticalAlign=middle;whiteSpace=wrap;rounded=0;" vertex="1" parent="1">
          <mxGeometry x="420" y="130" width="60" height="30" as="geometry" />
        </mxCell>
        <mxCell id="zt0yvEeUoWX8miQGYGIt-41" value="&lt;span style=&quot;font-size: 10px;&quot;&gt;H=6&lt;/span&gt;" style="text;html=1;align=center;verticalAlign=middle;whiteSpace=wrap;rounded=0;" vertex="1" parent="1">
          <mxGeometry x="360" y="180" width="60" height="30" as="geometry" />
        </mxCell>
        <mxCell id="zt0yvEeUoWX8miQGYGIt-42" value="&lt;span style=&quot;font-size: 10px;&quot;&gt;J=2&lt;/span&gt;" style="text;html=1;align=center;verticalAlign=middle;whiteSpace=wrap;rounded=0;" vertex="1" parent="1">
          <mxGeometry x="410" y="260" width="60" height="30" as="geometry" />
        </mxCell>
        <mxCell id="zt0yvEeUoWX8miQGYGIt-43" value="Path 1 (A-D-I): L= 2+4+3 = 9 days&lt;div&gt;Path 2 (A-E-F-I): L= 2+2+5+3 = 12 days&lt;/div&gt;&lt;div&gt;Path 3 (B-F-I): L= 2+5+3 = 10 days&lt;/div&gt;&lt;div&gt;&lt;b&gt;Path 4 - Critical Path(B-F-H-J): L= 2+5+6+2 =15 days&lt;/b&gt;&lt;/div&gt;&lt;div&gt;Path 5 - Shortest Pathway (C-G-J): L = 3+3+2 = 8 days.&lt;/div&gt;&lt;div&gt;&lt;br&gt;&lt;/div&gt;" style="text;html=1;align=left;verticalAlign=top;whiteSpace=wrap;rounded=0;" vertex="1" parent="1">
          <mxGeometry x="65" y="420" width="335" height="120" as="geometry" />
        </mxCell>
        <mxCell id="zt0yvEeUoWX8miQGYGIt-44" value="&lt;h1 style=&quot;margin-top: 0px;&quot;&gt;Answers&lt;/h1&gt;&lt;div&gt;c.) Critical Path for the diagram is Path 4 (B-F-H-J) and is 15 days.&lt;/div&gt;&lt;div&gt;d.) The shortest time possible to complete the project is (C-G-J) at 8 days.&lt;/div&gt;" style="text;html=1;whiteSpace=wrap;overflow=hidden;rounded=0;" vertex="1" parent="1">
          <mxGeometry x="420" y="390" width="180" height="120" as="geometry" />
        </mxCell>
        <mxCell id="zt0yvEeUoWX8miQGYGIt-45" value="William McCray" style="text;html=1;align=center;verticalAlign=middle;whiteSpace=wrap;rounded=0;" vertex="1" parent="1">
          <mxGeometry x="5" y="20" width="60" height="30" as="geometry" />
        </mxCell>
      </root>
    </mxGraphModel>
  </diagram>
</mxfile>
